<svg xmlns="http://www.w3.org/2000/svg" xmlns:xlink="http://www.w3.org/1999/xlink" preserveAspectRatio="xMidYMid meet" version="1.0" viewBox="1.3 1.9 527.4 435.9" zoomAndPan="magnify" style="fill: rgb(195, 174, 132);" original_string_length="1016" width="21.03506666434398px" height="17.401736967775477px"><g><g><g id="__id5_s27t6ffg3c"><path d="m400.25,1190.25h236v169c.277,61.98 55.551,101.13 121,101-.48.13 253,0 253,0 65.56.13 119.91-39.02 120-101v-169h239v-1183h-969v1183" transform="matrix(.3 0 0 -.3 0 440)" style="fill: inherit;"/></g><g id="__id6_s27t6ffg3c"><path d="m311.25 9.25h-130c-89.582-0.16016-176.52 65.75-177 180 0 0 0.47656 821.17 0 823 0.47656 102.33 85.332 179.57 177 180h130v-1183" transform="matrix(.3 0 0 -.3 0 440)" style="fill: inherit;"/></g><g id="__id7_s27t6ffg3c"><path d="m723.25 1190.2h317v175h-317v-175z" transform="matrix(.3 0 0 -.3 0 440)" style="fill: rgb(255, 255, 255);"/></g><g id="__id8_s27t6ffg3c"><path d="m1455.25,9.25h130c89.75-.16016 176.69,65.75 177,180 0,0-.31,821.17 0,823-.31,102.33-85.17,179.57-177,180h-130v-1183" transform="matrix(.3 0 0 -.3 0 440)" style="fill: inherit;"/></g></g></g></svg>