<svg xmlns="http://www.w3.org/2000/svg" xmlns:xlink="http://www.w3.org/1999/xlink" preserveAspectRatio="xMidYMid meet" version="1.0" viewBox="0.0 0.0 483.4 483.4" zoomAndPan="magnify" style="fill: rgb(195, 174, 132);" original_string_length="2520" width="17.084459148946834px" height="17.084459148946834px"><g id="__id4_s27t6ffg3c"><path d="M241.7001953,483.4003906c-64.5605469,0-125.2568359-25.1416016-170.9077148-70.7919922 C25.1411133,366.9570312,0,306.2607422,0,241.7001953S25.1411133,116.4433594,70.7924805,70.7924805 C116.4433594,25.1411133,177.1396484,0,241.7001953,0s125.2568359,25.1411133,170.9082031,70.7924805 c45.6503906,45.6508789,70.7919922,106.347168,70.7919922,170.9077148s-25.1416016,125.2568359-70.7919922,170.9082031 C366.9570312,458.2587891,306.2607422,483.4003906,241.7001953,483.4003906z M241.7001953,15 c-60.5537109,0-117.4833984,23.5810547-160.3012695,66.3989258S15,181.1464844,15,241.7001953 s23.5810547,117.4833984,66.3989258,160.3017578c42.8178711,42.8173828,99.7475586,66.3984375,160.3012695,66.3984375 s117.4833984-23.5810547,160.3017578-66.3984375c42.8173828-42.8183594,66.3984375-99.7480469,66.3984375-160.3017578 s-23.5810547-117.4833984-66.3984375-160.3012695C359.1835938,38.5810547,302.2539062,15,241.7001953,15z M380.8955078,102.5053711 c-2.5068359-2.5058594-6.421875-2.9160156-9.3945312-0.9829102L209.2763672,207.0805664 c-0.0010376,0.0006714-0.0020142,0.0015259-0.0030518,0.0021973c-0.206604,0.1348877-0.4078369,0.281311-0.6032104,0.4386597 c-0.0090332,0.0072632-0.019104,0.0133667-0.0280762,0.0206299c-0.1621094,0.1318359-0.3171387,0.2762451-0.4703369,0.423645 c-0.0689697,0.0663452-0.1364746,0.133606-0.2028809,0.2025146c-0.1487427,0.1543579-0.2941895,0.31073-0.427124,0.4741821 c-0.0050049,0.0062256-0.0092163,0.0132446-0.0142822,0.0194702c-0.1602173,0.1983032-0.3085327,0.402771-0.4454956,0.6126709 c-0.0004272,0.0006714-0.0009155,0.0011597-0.0013428,0.0018311L101.5224609,371.5009766 c-1.9331055,2.9707031-1.5229492,6.8886719,0.9829102,9.3945312c1.4487305,1.4482422,3.3691406,2.1962891,5.3056641,2.1962891 c1.4130859,0,2.8349609-0.3984375,4.0878906-1.2138672L274.125,276.3203125 c0.0009155-0.0006104,0.001709-0.0013428,0.0026245-0.0019531c0.4279785-0.2792358,0.8344727-0.6049194,1.2102661-0.9804688 c0.3762817-0.3764038,0.7023926-0.7836304,0.9819946-1.2123413c0.0001221-0.0001831,0.0003052-0.0003662,0.0004272-0.0005493 l105.5576172-162.2260742C383.8105469,108.9287109,383.4013672,105.0112305,380.8955078,102.5053711z M268.7945557,258.1872559 l-43.5814209-43.5806885l124.7624512-81.182251L268.7945557,258.1872559z" style="fill: inherit;"/></g></svg>