<svg xmlns="http://www.w3.org/2000/svg" xmlns:xlink="http://www.w3.org/1999/xlink" version="1.1" x="0px" y="0px" viewBox="0 0 500 145.917" enable-background="new 0 0 500 145.917" xml:space="preserve" style="fill: rgb(0, 0, 0);" original_string_length="1209" width="65.36472106092454px" height="18.955769107668115px">
<g id="__id11_sapfhyvn9">
	<g id="__id12_sapfhyvn9">
		<path d="M25.3,47.656c-0.192,0-0.38,0.027-0.572,0.032V98.23c0.192,0.006,0.378,0.033,0.572,0.033h368.696V47.656    H25.3z" style="fill: rgb(48, 29, 20);"/>
	</g>
</g>
<g id="__id13_sapfhyvn9">
	<g id="__id14_sapfhyvn9">
		<path d="M0,72.958c0,13.778,11.021,24.961,24.727,25.27V47.685C11.022,47.995,0,59.178,0,72.958z" style="fill: rgb(48, 29, 20);"/>
	</g>
</g>
<g id="__id15_sapfhyvn9">
	<g id="__id16_sapfhyvn9">
		<path d="M492.076,58.186l-72.51-54.237C416.115,1.366,412.254,0,408.406,0c-8.347,0-14.409,6.421-14.409,15.269    V130.64c0,8.85,6.062,15.277,14.413,15.277c3.853,0,7.712-1.369,11.16-3.951l72.507-54.24C497.113,83.955,500,78.573,500,72.95    C500.001,67.331,497.112,61.951,492.076,58.186z" style="fill: rgb(48, 29, 20);"/>
	</g>
</g>
</svg>